<svg width="55" height="46" viewBox="0 0 55 46" fill="none" xmlns="http://www.w3.org/2000/svg">
<g clip-path="url(#clip0_2984_6811)">
<g clip-path="url(#clip1_2984_6811)">
<g clip-path="url(#clip2_2984_6811)">
<path d="M23.0001 17.748L22.2831 17.011C20.6001 15.281 17.5141 15.878 16.4001 18.053C15.8771 19.076 15.7591 20.553 16.7141 22.438C17.6341 24.253 19.5481 26.427 23.0001 28.795C26.4521 26.427 28.3651 24.253 29.2861 22.438C30.2411 20.552 30.1241 19.076 29.6001 18.053C28.4861 15.878 25.4001 15.28 23.7171 17.01L23.0001 17.748ZM23.0001 30C7.66714 19.868 18.2791 11.96 22.8241 16.143C22.8841 16.198 22.9431 16.255 23.0001 16.314C23.0566 16.2551 23.1153 16.1984 23.1761 16.144C27.7201 11.958 38.3331 19.867 23.0001 30Z" fill="#23A6F0"/>
</g>
<path d="M36.5631 18.612H39.6111V27H38.2671V19.872H36.5631V18.612Z" fill="#23A6F0"/>
</g>
</g>
<defs>
<clipPath id="clip0_2984_6811">
<rect width="56" height="46" fill="white" transform="translate(0.000305176)"/>
</clipPath>
<clipPath id="clip1_2984_6811">
<rect width="56" height="46" fill="white" transform="translate(0.000305176)"/>
</clipPath>
<clipPath id="clip2_2984_6811">
<rect width="16" height="16" fill="white" transform="translate(15.0002 15)"/>
</clipPath>
</defs>
</svg>
