<svg width="166" height="54" viewBox="0 0 166 54" fill="none" xmlns="http://www.w3.org/2000/svg">
<g clip-path="url(#clip0_2984_6795)">
<g clip-path="url(#clip1_2984_6795)">
<path d="M20.9997 27C21.7953 27 22.5584 26.6839 23.121 26.1213C23.6836 25.5587 23.9997 24.7956 23.9997 24C23.9997 23.2044 23.6836 22.4413 23.121 21.8787C22.5584 21.3161 21.7953 21 20.9997 21C20.204 21 19.441 21.3161 18.8784 21.8787C18.3158 22.4413 17.9997 23.2044 17.9997 24C17.9997 24.7956 18.3158 25.5587 18.8784 26.1213C19.441 26.6839 20.204 27 20.9997 27ZM22.9997 24C22.9997 24.5304 22.789 25.0391 22.4139 25.4142C22.0388 25.7893 21.5301 26 20.9997 26C20.4693 26 19.9606 25.7893 19.5855 25.4142C19.2104 25.0391 18.9997 24.5304 18.9997 24C18.9997 23.4696 19.2104 22.9609 19.5855 22.5858C19.9606 22.2107 20.4693 22 20.9997 22C21.5301 22 22.0388 22.2107 22.4139 22.5858C22.789 22.9609 22.9997 23.4696 22.9997 24ZM26.9997 32C26.9997 33 25.9997 33 25.9997 33H15.9997C15.9997 33 14.9997 33 14.9997 32C14.9997 31 15.9997 28 20.9997 28C25.9997 28 26.9997 31 26.9997 32ZM25.9997 31.996C25.9987 31.75 25.8457 31.01 25.1677 30.332C24.5157 29.68 23.2887 29 20.9997 29C18.7097 29 17.4837 29.68 16.8317 30.332C16.1537 31.01 16.0017 31.75 15.9997 31.996H25.9997Z" fill="#23A6F0"/>
</g>
<path d="M33.5289 32V22.214H35.7129V30.054H39.8849V32H33.5289ZM43.0602 28.234C43.0602 28.85 43.2329 29.354 43.5782 29.746C43.9329 30.1287 44.3809 30.32 44.9222 30.32C45.4729 30.32 45.9209 30.1287 46.2662 29.746C46.6209 29.354 46.7982 28.85 46.7982 28.234C46.7982 27.618 46.6209 27.114 46.2662 26.722C45.9209 26.33 45.4729 26.134 44.9222 26.134C44.3809 26.134 43.9329 26.33 43.5782 26.722C43.2329 27.114 43.0602 27.618 43.0602 28.234ZM48.9122 28.234C48.9122 29.326 48.5342 30.2453 47.7782 30.992C47.0222 31.7387 46.0702 32.112 44.9222 32.112C43.7836 32.112 42.8362 31.7387 42.0802 30.992C41.3242 30.2453 40.9462 29.326 40.9462 28.234C40.9462 27.142 41.3242 26.2227 42.0802 25.476C42.8362 24.72 43.7836 24.342 44.9222 24.342C46.0702 24.342 47.0222 24.72 47.7782 25.476C48.5342 26.2227 48.9122 27.142 48.9122 28.234ZM55.95 28.08C55.95 27.4733 55.782 26.9973 55.446 26.652C55.11 26.3067 54.6947 26.134 54.2 26.134C53.7053 26.134 53.276 26.3067 52.912 26.652C52.5573 26.9973 52.38 27.4687 52.38 28.066C52.38 28.6633 52.5527 29.1487 52.898 29.522C53.2527 29.886 53.682 30.068 54.186 30.068C54.69 30.068 55.11 29.886 55.446 29.522C55.782 29.158 55.95 28.6773 55.95 28.08ZM56.244 30.726C55.5813 31.4633 54.7553 31.832 53.766 31.832C52.786 31.832 51.9553 31.5007 51.274 30.838C50.602 30.166 50.266 29.2747 50.266 28.164C50.266 27.044 50.6113 26.1293 51.302 25.42C52.002 24.7013 52.8 24.342 53.696 24.342C54.592 24.342 55.334 24.7107 55.922 25.448V24.454H58.022V31.02C58.022 31.692 57.9053 32.2893 57.672 32.812C57.4387 33.3347 57.126 33.7453 56.734 34.044C55.9593 34.66 55.0447 34.968 53.99 34.968C53.43 34.968 52.856 34.8747 52.268 34.688C51.6893 34.5107 51.1807 34.254 50.742 33.918L51.554 32.336C52.2447 32.8587 52.9727 33.12 53.738 33.12C54.5127 33.12 55.124 32.9287 55.572 32.546C56.02 32.1633 56.244 31.5567 56.244 30.726ZM62.3099 32H60.2099V24.468H62.3099V32ZM60.3779 23.516C60.1446 23.2733 60.0279 22.9793 60.0279 22.634C60.0279 22.2887 60.1446 21.9993 60.3779 21.766C60.6206 21.5233 60.9146 21.402 61.2599 21.402C61.6052 21.402 61.8946 21.5233 62.1279 21.766C62.3706 21.9993 62.4919 22.2887 62.4919 22.634C62.4919 22.9793 62.3706 23.2733 62.1279 23.516C61.8946 23.7493 61.6052 23.866 61.2599 23.866C60.9146 23.866 60.6206 23.7493 60.3779 23.516ZM66.5978 27.8V32H64.4978V24.468H66.5978V25.308C67.2325 24.664 67.9465 24.342 68.7398 24.342C69.5331 24.342 70.1958 24.622 70.7278 25.182C71.2691 25.742 71.5398 26.4887 71.5398 27.422V32H69.4398V27.744C69.4398 26.5867 69.0151 26.008 68.1658 26.008C67.7458 26.008 67.3771 26.162 67.0598 26.47C66.7518 26.7687 66.5978 27.212 66.5978 27.8ZM82.7806 20.73H84.7686L78.8886 33.568H76.9146L82.7806 20.73ZM98.3696 25.462C98.3696 27.03 97.749 28.0427 96.5076 28.5L98.9856 32H96.2976L94.1276 28.878H92.6156V32H90.4316V22.214H94.1416C95.663 22.214 96.7456 22.4707 97.3896 22.984C98.043 23.4973 98.3696 24.3233 98.3696 25.462ZM94.2116 26.988C94.9583 26.988 95.467 26.8667 95.7376 26.624C96.0083 26.3813 96.1436 25.9987 96.1436 25.476C96.1436 24.944 96.0036 24.58 95.7236 24.384C95.4436 24.188 94.9536 24.09 94.2536 24.09H92.6156V26.988H94.2116ZM107.118 30.908C106.268 31.7107 105.27 32.112 104.122 32.112C102.983 32.112 102.04 31.762 101.294 31.062C100.547 30.3527 100.174 29.4053 100.174 28.22C100.174 27.0347 100.552 26.092 101.308 25.392C102.073 24.692 102.974 24.342 104.01 24.342C105.046 24.342 105.923 24.6547 106.642 25.28C107.37 25.9053 107.734 26.764 107.734 27.856V28.976H102.246C102.311 29.3867 102.526 29.7227 102.89 29.984C103.254 30.2453 103.664 30.376 104.122 30.376C104.859 30.376 105.466 30.1287 105.942 29.634L107.118 30.908ZM105.606 27.478C105.559 27.03 105.391 26.6847 105.102 26.442C104.812 26.1993 104.458 26.078 104.038 26.078C103.627 26.078 103.249 26.204 102.904 26.456C102.558 26.708 102.358 27.0487 102.302 27.478H105.606ZM114.726 28.08C114.726 27.4733 114.558 26.9973 114.222 26.652C113.886 26.3067 113.47 26.134 112.976 26.134C112.481 26.134 112.052 26.3067 111.688 26.652C111.333 26.9973 111.156 27.4687 111.156 28.066C111.156 28.6633 111.328 29.1487 111.674 29.522C112.028 29.886 112.458 30.068 112.962 30.068C113.466 30.068 113.886 29.886 114.222 29.522C114.558 29.158 114.726 28.6773 114.726 28.08ZM115.02 30.726C114.357 31.4633 113.531 31.832 112.542 31.832C111.562 31.832 110.731 31.5007 110.05 30.838C109.378 30.166 109.042 29.2747 109.042 28.164C109.042 27.044 109.387 26.1293 110.078 25.42C110.778 24.7013 111.576 24.342 112.472 24.342C113.368 24.342 114.11 24.7107 114.698 25.448V24.454H116.798V31.02C116.798 31.692 116.681 32.2893 116.448 32.812C116.214 33.3347 115.902 33.7453 115.51 34.044C114.735 34.66 113.82 34.968 112.766 34.968C112.206 34.968 111.632 34.8747 111.044 34.688C110.465 34.5107 109.956 34.254 109.518 33.918L110.33 32.336C111.02 32.8587 111.748 33.12 112.514 33.12C113.288 33.12 113.9 32.9287 114.348 32.546C114.796 32.1633 115.02 31.5567 115.02 30.726ZM121.086 32H118.986V24.468H121.086V32ZM119.154 23.516C118.92 23.2733 118.804 22.9793 118.804 22.634C118.804 22.2887 118.92 21.9993 119.154 21.766C119.396 21.5233 119.69 21.402 120.036 21.402C120.381 21.402 120.67 21.5233 120.904 21.766C121.146 21.9993 121.268 22.2887 121.268 22.634C121.268 22.9793 121.146 23.2733 120.904 23.516C120.67 23.7493 120.381 23.866 120.036 23.866C119.69 23.866 119.396 23.7493 119.154 23.516ZM128.944 29.662C128.944 30.3993 128.668 30.992 128.118 31.44C127.576 31.888 126.886 32.112 126.046 32.112C125.486 32.112 124.902 32.014 124.296 31.818C123.689 31.6127 123.143 31.314 122.658 30.922L123.582 29.606C124.366 30.2127 125.201 30.516 126.088 30.516C126.358 30.516 126.573 30.4647 126.732 30.362C126.89 30.25 126.97 30.1053 126.97 29.928C126.97 29.7507 126.858 29.5873 126.634 29.438C126.419 29.2887 126.102 29.1487 125.682 29.018C125.271 28.8873 124.954 28.7753 124.73 28.682C124.515 28.5887 124.268 28.4533 123.988 28.276C123.418 27.9213 123.134 27.3987 123.134 26.708C123.134 26.008 123.414 25.4387 123.974 25C124.534 24.5613 125.257 24.342 126.144 24.342C127.03 24.342 127.917 24.6407 128.804 25.238L128.02 26.638C127.366 26.19 126.713 25.966 126.06 25.966C125.416 25.966 125.094 26.1433 125.094 26.498C125.094 26.694 125.196 26.848 125.402 26.96C125.607 27.072 125.948 27.2027 126.424 27.352C126.9 27.5013 127.236 27.618 127.432 27.702C127.637 27.7767 127.88 27.898 128.16 28.066C128.682 28.3833 128.944 28.9153 128.944 29.662ZM133.198 25.98V29.354C133.198 29.6433 133.273 29.872 133.422 30.04C133.572 30.1987 133.749 30.278 133.954 30.278C134.346 30.278 134.678 30.1007 134.948 29.746L135.732 31.216C135.079 31.8133 134.388 32.112 133.66 32.112C132.942 32.112 132.33 31.874 131.826 31.398C131.332 30.922 131.084 30.2733 131.084 29.452V25.98H130.202V24.468H131.084V22.214H133.198V24.468H135.018V25.98H133.198ZM143.582 30.908C142.733 31.7107 141.734 32.112 140.586 32.112C139.448 32.112 138.505 31.762 137.758 31.062C137.012 30.3527 136.638 29.4053 136.638 28.22C136.638 27.0347 137.016 26.092 137.772 25.392C138.538 24.692 139.438 24.342 140.474 24.342C141.51 24.342 142.388 24.6547 143.106 25.28C143.834 25.9053 144.198 26.764 144.198 27.856V28.976H138.71C138.776 29.3867 138.99 29.7227 139.354 29.984C139.718 30.2453 140.129 30.376 140.586 30.376C141.324 30.376 141.93 30.1287 142.406 29.634L143.582 30.908ZM142.07 27.478C142.024 27.03 141.856 26.6847 141.566 26.442C141.277 26.1993 140.922 26.078 140.502 26.078C140.092 26.078 139.714 26.204 139.368 26.456C139.023 26.708 138.822 27.0487 138.766 27.478H142.07ZM149.875 26.316C149.249 26.316 148.783 26.54 148.475 26.988C148.167 27.4267 148.013 28.01 148.013 28.738V32H145.913V24.468H148.013V25.462C148.283 25.154 148.619 24.8927 149.021 24.678C149.431 24.4633 149.847 24.3513 150.267 24.342L150.281 26.316H149.875Z" fill="#23A6F0"/>
</g>
<defs>
<clipPath id="clip0_2984_6795">
<rect width="166" height="54" fill="white" transform="translate(-0.000305176)"/>
</clipPath>
<clipPath id="clip1_2984_6795">
<rect width="12" height="12" fill="white" transform="translate(14.9997 21)"/>
</clipPath>
</defs>
</svg>
