<svg width="120" height="26" viewBox="0 0 120 26" fill="none" xmlns="http://www.w3.org/2000/svg">
<g clip-path="url(#clip0_2984_6713)">
<path d="M13 5.00024C10.829 5.00024 10.556 5.01024 9.703 5.04824C8.85 5.08824 8.269 5.22224 7.76 5.42024C7.22609 5.62106 6.74249 5.93607 6.343 6.34324C5.93608 6.74294 5.62111 7.22648 5.42 7.76024C5.222 8.26824 5.087 8.85024 5.048 9.70024C5.01 10.5552 5 10.8272 5 13.0012C5 15.1732 5.01 15.4452 5.048 16.2982C5.088 17.1502 5.222 17.7312 5.42 18.2402C5.625 18.7662 5.898 19.2122 6.343 19.6572C6.787 20.1022 7.233 20.3762 7.759 20.5802C8.269 20.7782 8.849 20.9132 9.701 20.9522C10.555 20.9902 10.827 21.0002 13 21.0002C15.173 21.0002 15.444 20.9902 16.298 20.9522C17.149 20.9122 17.732 20.7782 18.241 20.5802C18.7746 20.3793 19.2578 20.0643 19.657 19.6572C20.102 19.2122 20.375 18.7662 20.58 18.2402C20.777 17.7312 20.912 17.1502 20.952 16.2982C20.99 15.4452 21 15.1732 21 13.0002C21 10.8272 20.99 10.5552 20.952 9.70124C20.912 8.85024 20.777 8.26824 20.58 7.76024C20.3789 7.22647 20.0639 6.74292 19.657 6.34324C19.2576 5.93592 18.774 5.62089 18.24 5.42024C17.73 5.22224 17.148 5.08724 16.297 5.04824C15.443 5.01024 15.172 5.00024 12.998 5.00024H13.001H13ZM12.283 6.44224H13.001C15.137 6.44224 15.39 6.44924 16.233 6.48824C17.013 6.52324 17.437 6.65424 17.719 6.76324C18.092 6.90824 18.359 7.08224 18.639 7.36224C18.919 7.64224 19.092 7.90824 19.237 8.28224C19.347 8.56324 19.477 8.98724 19.512 9.76724C19.551 10.6102 19.559 10.8632 19.559 12.9982C19.559 15.1332 19.551 15.3872 19.512 16.2302C19.477 17.0102 19.346 17.4332 19.237 17.7152C19.1087 18.0626 18.904 18.3767 18.638 18.6342C18.358 18.9142 18.092 19.0872 17.718 19.2322C17.438 19.3422 17.014 19.4722 16.233 19.5082C15.39 19.5462 15.137 19.5552 13.001 19.5552C10.865 19.5552 10.611 19.5462 9.768 19.5082C8.988 19.4722 8.565 19.3422 8.283 19.2322C7.9355 19.1042 7.62113 18.8998 7.363 18.6342C7.09675 18.3763 6.89172 18.0619 6.763 17.7142C6.654 17.4332 6.523 17.0092 6.488 16.2292C6.45 15.3862 6.442 15.1332 6.442 12.9962C6.442 10.8602 6.45 10.6082 6.488 9.76524C6.524 8.98524 6.654 8.56124 6.764 8.27924C6.909 7.90624 7.083 7.63924 7.363 7.35924C7.643 7.07924 7.909 6.90624 8.283 6.76124C8.565 6.65124 8.988 6.52124 9.768 6.48524C10.506 6.45124 10.792 6.44124 12.283 6.44024V6.44224ZM17.271 7.77024C17.1449 7.77024 17.0201 7.79508 16.9036 7.84332C16.7872 7.89156 16.6813 7.96228 16.5922 8.05142C16.503 8.14057 16.4323 8.2464 16.3841 8.36287C16.3358 8.47934 16.311 8.60418 16.311 8.73024C16.311 8.85631 16.3358 8.98115 16.3841 9.09762C16.4323 9.21409 16.503 9.31992 16.5922 9.40907C16.6813 9.49821 16.7872 9.56892 16.9036 9.61717C17.0201 9.66541 17.1449 9.69024 17.271 9.69024C17.5256 9.69024 17.7698 9.5891 17.9498 9.40907C18.1299 9.22903 18.231 8.98485 18.231 8.73024C18.231 8.47564 18.1299 8.23146 17.9498 8.05142C17.7698 7.87139 17.5256 7.77024 17.271 7.77024ZM13.001 8.89224C12.4561 8.88374 11.9149 8.98373 11.409 9.18639C10.9031 9.38904 10.4425 9.69032 10.0542 10.0727C9.66579 10.455 9.35736 10.9108 9.14684 11.4135C8.93632 11.9162 8.8279 12.4557 8.8279 13.0007C8.8279 13.5457 8.93632 14.0853 9.14684 14.588C9.35736 15.0907 9.66579 15.5465 10.0542 15.9288C10.4425 16.3112 10.9031 16.6124 11.409 16.8151C11.9149 17.0178 12.4561 17.1177 13.001 17.1092C14.0795 17.0924 15.1082 16.6522 15.865 15.8835C16.6217 15.1148 17.0459 14.0794 17.0459 13.0007C17.0459 11.9221 16.6217 10.8867 15.865 10.118C15.1082 9.34933 14.0795 8.90907 13.001 8.89224ZM13.001 10.3332C13.7083 10.3332 14.3867 10.6142 14.8869 11.1144C15.387 11.6145 15.668 12.2929 15.668 13.0002C15.668 13.7076 15.387 14.3859 14.8869 14.8861C14.3867 15.3863 13.7083 15.6672 13.001 15.6672C12.2937 15.6672 11.6153 15.3863 11.1151 14.8861C10.615 14.3859 10.334 13.7076 10.334 13.0002C10.334 12.2929 10.615 11.6145 11.1151 11.1144C11.6153 10.6142 12.2937 10.3332 13.001 10.3332Z" fill="white"/>
<g clip-path="url(#clip1_2984_6713)">
<path d="M45.051 6.99927H45.14C45.962 7.00227 50.127 7.03227 51.25 7.33427C51.5895 7.42644 51.8989 7.60609 52.1472 7.85528C52.3955 8.10446 52.574 8.41445 52.665 8.75427C52.766 9.13427 52.837 9.63727 52.885 10.1563L52.895 10.2603L52.917 10.5203L52.925 10.6243C52.99 11.5383 52.998 12.3943 52.999 12.5813V12.6563C52.998 12.8503 52.989 13.7643 52.917 14.7163L52.909 14.8213L52.9 14.9253C52.85 15.4973 52.776 16.0653 52.665 16.4833C52.5743 16.8232 52.3958 17.1334 52.1475 17.3826C51.8991 17.6318 51.5896 17.8114 51.25 17.9033C50.09 18.2153 45.681 18.2373 45.07 18.2383H44.928C44.619 18.2383 43.341 18.2323 42.001 18.1863L41.831 18.1803L41.744 18.1763L41.573 18.1693L41.402 18.1623C40.292 18.1133 39.235 18.0343 38.748 17.9023C38.4085 17.8105 38.0991 17.6311 37.8507 17.382C37.6024 17.133 37.4238 16.823 37.333 16.4833C37.222 16.0663 37.148 15.4973 37.098 14.9253L37.09 14.8203L37.082 14.7163C37.0326 14.0387 37.0053 13.3596 37 12.6803L37 12.5573C37.002 12.3423 37.01 11.5993 37.064 10.7793L37.071 10.6763L37.074 10.6243L37.082 10.5203L37.104 10.2603L37.114 10.1563C37.162 9.63727 37.233 9.13327 37.334 8.75427C37.4247 8.41432 37.6032 8.10418 37.8515 7.85495C38.0999 7.60572 38.4094 7.42616 38.749 7.33427C39.236 7.20427 40.293 7.12427 41.403 7.07427L41.573 7.06727L41.745 7.06127L41.831 7.05827L42.002 7.05127C42.9537 7.02064 43.9058 7.00364 44.858 7.00027H45.051V6.99927ZM43.4 10.2093V15.0273L47.557 12.6193L43.4 10.2093Z" fill="white"/>
</g>
<g clip-path="url(#clip2_2984_6713)">
<path d="M82.002 13.0502C82.002 8.60424 78.42 5.00024 74.002 5.00024C69.582 5.00124 66 8.60424 66 13.0512C66 17.0682 68.926 20.3982 72.75 21.0022V15.3772H70.72V13.0512H72.752V11.2762C72.752 9.25924 73.947 8.14524 75.774 8.14524C76.65 8.14524 77.565 8.30224 77.565 8.30224V10.2822H76.556C75.563 10.2822 75.253 10.9032 75.253 11.5402V13.0502H77.471L77.117 15.3762H75.252V21.0012C79.076 20.3972 82.002 17.0672 82.002 13.0502Z" fill="white"/>
</g>
<g clip-path="url(#clip3_2984_6713)">
<path d="M103.026 19.0009C109.064 19.0009 112.367 13.9979 112.367 9.66694C112.367 9.52694 112.367 9.38494 112.361 9.24494C113.004 8.77942 113.559 8.20309 114 7.54294C113.399 7.80779 112.763 7.98234 112.111 8.06094C112.798 7.65057 113.312 7.00491 113.558 6.24394C112.913 6.62606 112.207 6.89431 111.471 7.03694C110.976 6.50996 110.321 6.16085 109.608 6.04369C108.895 5.92653 108.163 6.04786 107.525 6.38887C106.888 6.72989 106.381 7.27157 106.082 7.93C105.784 8.58843 105.711 9.32687 105.875 10.0309C104.57 9.96549 103.293 9.62641 102.127 9.03568C100.961 8.44495 99.9327 7.61578 99.108 6.60194C98.6893 7.32502 98.5616 8.18034 98.7506 8.9942C98.9397 9.80807 99.4315 10.5195 100.126 10.9839C99.6055 10.9663 99.0965 10.8265 98.64 10.5759V10.6209C98.6409 11.3784 98.9033 12.1124 99.3829 12.6987C99.8624 13.285 100.53 13.6878 101.272 13.8389C100.99 13.9166 100.699 13.9552 100.407 13.9539C100.201 13.9546 99.9954 13.9355 99.793 13.8969C100.003 14.549 100.411 15.1191 100.961 15.5274C101.511 15.9357 102.175 16.1618 102.86 16.1739C101.697 17.0877 100.259 17.5833 98.78 17.5809C98.5193 17.582 98.2588 17.567 98 17.5359C99.5015 18.4932 101.245 19.0015 103.026 19.0009Z" fill="white"/>
</g>
</g>
<defs>
<clipPath id="clip0_2984_6713">
<rect width="120" height="26.0003" fill="white"/>
</clipPath>
<clipPath id="clip1_2984_6713">
<rect width="16" height="16" fill="white" transform="translate(36.5 5.00024)"/>
</clipPath>
<clipPath id="clip2_2984_6713">
<rect width="16" height="16" fill="white" transform="translate(66.5 5.00024)"/>
</clipPath>
<clipPath id="clip3_2984_6713">
<rect width="16" height="16" fill="white" transform="translate(98.5 5.00024)"/>
</clipPath>
</defs>
</svg>
